<svg xmlns="http://www.w3.org/2000/svg" viewBox="0 0 32 32">
  <rect width="32" height="32" rx="5" fill="#FAF6EE"/>
  <path d="M17.107692307692307 19.958153846153845 15.291076923076924 20.371692307692307 20.26830769230769 7.315692307692306Q20.62276923076923 6.370461538461537 21.088 6.015999999999998Q21.55323076923077 5.661538461538459 22.380307692307692 5.661538461538459H27.387076923076922Q27.93353846153846 5.661538461538459 28.199384615384616 5.883076923076922Q28.465230769230768 6.104615384615386 28.465230769230768 6.4886153846153825Q28.465230769230768 6.828307692307693 28.287999999999997 7.0572307692307685Q28.11076923076923 7.286153846153844 27.785846153846155 7.404307692307693L27.12123076923077 7.611076923076922Q26.633846153846154 7.758769230769229 26.471384615384615 8.009846153846153Q26.308923076923076 8.260923076923078 26.338461538461537 8.822153846153846L27.372307692307693 23.31076923076923Q27.401846153846154 23.84246153846154 27.57169230769231 24.056615384615384Q27.74153846153846 24.27076923076923 28.14030769230769 24.403692307692307L28.790153846153846 24.595692307692307Q29.115076923076924 24.699076923076923 29.277538461538462 24.920615384615385Q29.439999999999998 25.142153846153846 29.439999999999998 25.46707692307692Q29.439999999999998 25.83630769230769 29.174153846153843 26.087384615384615Q28.90830769230769 26.338461538461537 28.36184615384615 26.338461538461537H20.667076923076923Q20.105846153846155 26.338461538461537 19.847384615384616 26.10953846153846Q19.588923076923077 25.880615384615382 19.588923076923077 25.511384615384614Q19.588923076923077 25.186461538461536 19.736615384615384 24.957538461538462Q19.884307692307694 24.728615384615384 20.283076923076923 24.595692307692307L20.947692307692307 24.403692307692307Q21.42030769230769 24.241230769230768 21.590153846153846 24.01230769230769Q21.759999999999998 23.783384615384612 21.730461538461537 23.31076923076923L20.563692307692307 8.216615384615384L22.20307692307692 8.083692307692306L16.088615384615384 24.256Q15.748923076923077 25.156923076923075 15.394461538461538 25.415384615384614Q15.04 25.673846153846153 14.552615384615384 25.673846153846153Q14.198153846153845 25.673846153846153 13.90276923076923 25.58523076923077Q13.607384615384616 25.496615384615385 13.356307692307691 25.179076923076924Q13.105230769230769 24.861538461538462 12.824615384615385 24.167384615384613L6.592 8.585846153846152L8.157538461538461 8.187076923076923L6.946461538461539 22.823384615384615Q6.902153846153846 23.488 7.241846153846154 23.84246153846154Q7.581538461538462 24.196923076923078 8.14276923076923 24.46276923076923L8.71876923076923 24.699076923076923Q8.955076923076923 24.81723076923077 9.088000000000001 25.001846153846152Q9.220923076923077 25.186461538461536 9.220923076923077 25.46707692307692Q9.220923076923077 25.865846153846153 8.96246153846154 26.102153846153847Q8.704 26.338461538461537 8.157538461538461 26.338461538461537H3.6233846153846154Q3.076923076923077 26.338461538461537 2.8184615384615386 26.10953846153846Q2.56 25.880615384615382 2.56 25.511384615384614Q2.56 25.127384615384614 2.766769230769231 24.927999999999997Q2.9735384615384617 24.728615384615384 3.313230769230769 24.566153846153846L3.771076923076923 24.388923076923074Q4.258461538461539 24.196923076923078 4.5760000000000005 23.835076923076922Q4.893538461538462 23.473230769230767 4.952615384615385 22.808615384615383L6.0750769230769235 9.309538461538462Q6.134153846153846 8.512 5.956923076923077 8.135384615384615Q5.779692307692308 7.758769230769229 5.292307692307692 7.611076923076922L4.642461538461538 7.404307692307693Q4.288 7.286153846153844 4.110769230769231 7.064615384615383Q3.9335384615384617 6.8430769230769215 3.9335384615384617 6.503384615384615Q3.9335384615384617 5.661538461538459 5.011692307692307 5.661538461538459H9.974153846153847Q10.742153846153846 5.661538461538459 11.207384615384616 5.979076923076921Q11.672615384615385 6.296615384615382 12.041846153846153 7.256615384615383Z" fill="#3D2B1F"/>
  <circle cx="16.0" cy="28.8" r="2" fill="#C77B3F"/>
</svg>