<svg xmlns="http://www.w3.org/2000/svg" viewBox="0 0 16 16">
  <rect width="16" height="16" rx="3" fill="#FAF6EE"/>
  <path d="M8.58021978021978 10.07331868131868 7.62865934065934 10.289934065934064 10.235780219780219 3.451076923076922Q10.42145054945055 2.955956043956043 10.665142857142857 2.7702857142857136Q10.908835164835164 2.5846153846153843 11.342065934065934 2.5846153846153843H13.96465934065934Q14.250901098901098 2.5846153846153843 14.390153846153845 2.7006593406593398Q14.529406593406593 2.8167032967032952 14.529406593406593 3.0178461538461523Q14.529406593406593 3.195780219780218 14.436571428571428 3.3156923076923066Q14.343736263736263 3.435604395604395 14.17353846153846 3.4974945054945046L13.825406593406592 3.6058021978021966Q13.570109890109888 3.6831648351648347 13.485010989010988 3.814681318681318Q13.399912087912087 3.9461978021978013 13.415384615384614 4.240175824175823L13.956923076923076 11.829450549450549Q13.972395604395603 12.107956043956042 14.061362637362635 12.220131868131865Q14.150329670329668 12.33230769230769 14.35920879120879 12.401934065934064L14.699604395604394 12.502505494505494Q14.869802197802196 12.556659340659339 14.954901098901097 12.672703296703295Q15.04 12.788747252747251 15.04 12.958945054945053Q15.04 13.152351648351647 14.900747252747252 13.28386813186813Q14.761494505494504 13.415384615384614 14.475252747252746 13.415384615384614H10.44465934065934Q10.150681318681318 13.415384615384614 10.015296703296702 13.295472527472526Q9.879912087912087 13.175560439560439 9.879912087912087 12.982153846153844Q9.879912087912087 12.811956043956043 9.957274725274726 12.692043956043955Q10.034637362637362 12.572131868131867 10.243516483516483 12.502505494505494L10.59164835164835 12.401934065934064Q10.83920879120879 12.316835164835163 10.928175824175824 12.196923076923076Q11.017142857142856 12.077010989010988 11.001670329670329 11.829450549450549L10.390505494505494 3.92298901098901L11.249230769230769 3.853362637362636L8.046417582417583 12.324571428571428Q7.868483516483517 12.796483516483516 7.682813186813187 12.93186813186813Q7.497142857142856 13.067252747252745 7.241846153846154 13.067252747252745Q7.056175824175824 13.067252747252745 6.90145054945055 13.020835164835162Q6.746725274725275 12.974417582417582 6.615208791208791 12.80808791208791Q6.483692307692307 12.64175824175824 6.336703296703297 12.278153846153845L3.0719999999999996 4.116395604395603L3.8920439560439557 3.907516483516483L3.2576703296703293 11.574153846153845Q3.234461538461538 11.922285714285714 3.412395604395604 12.107956043956044Q3.59032967032967 12.293626373626372 3.8843076923076922 12.43287912087912L4.186021978021978 12.556659340659339Q4.309802197802197 12.618549450549448 4.379428571428571 12.715252747252745Q4.449054945054945 12.811956043956043 4.449054945054945 12.958945054945053Q4.449054945054945 13.167824175824174 4.313670329670329 13.291604395604395Q4.178285714285714 13.415384615384614 3.8920439560439557 13.415384615384614H1.5170109890109889Q1.2307692307692306 13.415384615384614 1.0953846153846154 13.295472527472526Q0.96 13.175560439560439 0.96 12.982153846153844Q0.96 12.781010989010987 1.0683076923076922 12.676571428571428Q1.1766153846153844 12.572131868131867 1.3545494505494504 12.487032967032965L1.5943736263736263 12.394197802197802Q1.8496703296703296 12.293626373626372 2.016 12.10408791208791Q2.18232967032967 11.91454945054945 2.213274725274725 11.56641758241758L2.801230769230769 4.495472527472526Q2.832175824175824 4.0777142857142845 2.739340659340659 3.8804395604395596Q2.646505494505494 3.6831648351648347 2.3912087912087907 3.6058021978021966L2.050813186813187 3.4974945054945046Q1.865142857142857 3.435604395604395 1.7723076923076921 3.319560439560439Q1.6794725274725273 3.2035164835164824 1.6794725274725273 3.0255824175824166Q1.6794725274725273 2.5846153846153843 2.24421978021978 2.5846153846153843H4.843604395604395Q5.245890109890109 2.5846153846153843 5.489582417582417 2.7509450549450545Q5.733274725274725 2.9172747252747246 5.926681318681318 3.4201318681318664Z" fill="#3D2B1F"/>
</svg>