<svg xmlns="http://www.w3.org/2000/svg" viewBox="0 0 512 512">
  <rect width="512" height="512" rx="96" fill="#3D2B1F"/>
  <path d="M272.8791208791209 316.3147252747253 245.19736263736263 322.61626373626376 321.04087912087914 123.66769230769233Q326.4421978021978 109.26417582417582 333.5314285714286 103.86285714285714Q340.62065934065936 98.46153846153845 353.22373626373627 98.46153846153845H429.5173626373627Q437.84439560439563 98.46153846153845 441.8953846153846 101.83736263736265Q445.94637362637366 105.21318681318684 445.94637362637366 111.06461538461542Q445.94637362637366 116.24087912087913 443.2457142857143 119.72923076923078Q440.54505494505497 123.21758241758243 435.5938461538462 125.01802197802198L425.46637362637364 128.16879120879122Q418.03956043956043 130.41934065934066 415.56395604395607 134.24527472527473Q413.08835164835165 138.0712087912088 413.53846153846155 146.62329670329672L429.2923076923077 367.4021978021978Q429.7424175824176 375.50417582417583 432.3305494505495 378.76747252747253Q434.91868131868137 382.03076923076924 440.99516483516487 384.05626373626376L450.89758241758244 386.981978021978Q455.8487912087912 388.55736263736264 458.3243956043956 391.9331868131868Q460.8 395.30901098901097 460.8 400.2602197802198Q460.8 405.8865934065934 456.749010989011 409.7125274725275Q452.698021978022 413.53846153846155 444.37098901098904 413.53846153846155H327.11736263736265Q318.5652747252747 413.53846153846155 314.6268131868132 410.05010989010987Q310.68835164835167 406.56175824175824 310.68835164835167 400.93538461538463Q310.68835164835167 395.98417582417585 312.9389010989011 392.49582417582417Q315.18945054945056 389.00747252747254 321.26593406593406 386.981978021978L331.3934065934066 384.05626373626376Q338.59516483516484 381.58065934065934 341.1832967032967 378.0923076923077Q343.7714285714286 374.60395604395603 343.3213186813187 367.4021978021978L325.541978021978 137.39604395604397L350.5230769230769 135.37054945054945L257.3503296703297 381.8057142857143Q252.17406593406594 395.53406593406595 246.77274725274725 399.4725274725275Q241.37142857142857 403.410989010989 233.94461538461542 403.410989010989Q228.54329670329673 403.410989010989 224.04219780219782 402.0606593406593Q219.5410989010989 400.71032967032966 215.71516483516484 395.87164835164833Q211.88923076923078 391.03296703296706 207.61318681318681 380.4553846153846L112.64 143.02241758241757L136.49582417582417 136.94593406593407L118.04131868131869 359.97538461538466Q117.36615384615385 370.10285714285715 122.54241758241758 375.50417582417583Q127.71868131868132 380.9054945054945 136.27076923076925 384.9564835164835L145.0479120879121 388.55736263736264Q148.6487912087912 390.3578021978022 150.6742857142857 393.17098901098905Q152.69978021978022 395.98417582417585 152.69978021978022 400.2602197802198Q152.69978021978022 406.3367032967033 148.7613186813187 409.93758241758246Q144.82285714285715 413.53846153846155 136.49582417582417 413.53846153846155H67.40395604395604Q59.07692307692308 413.53846153846155 55.13846153846154 410.05010989010987Q51.2 406.56175824175824 51.2 400.93538461538463Q51.2 395.08395604395605 54.35076923076923 392.0457142857143Q57.501538461538466 389.00747252747254 62.67780219780221 386.5318681318681L69.6545054945055 383.8312087912088Q77.08131868131869 380.9054945054945 81.92000000000002 375.39164835164837Q86.75868131868133 369.8778021978022 87.65890109890111 359.7503296703297L104.76307692307694 154.05010989010992Q105.66329670329671 141.89714285714285 102.96263736263737 136.15824175824176Q100.26197802197802 130.41934065934066 92.83516483516485 128.16879120879122L82.93274725274726 125.01802197802198Q77.53142857142858 123.21758241758243 74.83076923076923 119.84175824175824Q72.13010989010989 116.46593406593405 72.13010989010989 111.28967032967034Q72.13010989010989 98.46153846153845 88.55912087912088 98.46153846153845H164.1775824175824Q175.88043956043958 98.46153846153845 182.96967032967035 103.30021978021978Q190.05890109890112 108.1389010989011 195.68527472527472 122.76747252747253Z" fill="#FAF6EE"/>
  <rect x="238.0" y="411.0" 
        width="36" height="5" rx="2.5" fill="#2C6E63"/>
  <circle cx="256.0" cy="439.5" r="8" fill="#C77B3F"/>
</svg>