<svg xmlns="http://www.w3.org/2000/svg" viewBox="0 0 512 512">
  <rect width="512" height="512" fill="#FAF6EE"/>
  <path d="M269.5032967032967 304.25178021978024 247.3578901098901 309.293010989011 308.0327032967033 150.13415384615385Q312.3537582417582 138.61134065934067 318.02514285714284 134.29028571428574Q323.69652747252746 129.9692307692308 333.778989010989 129.9692307692308H394.8138901098901Q401.47551648351646 129.9692307692308 404.7163076923076 132.66989010989013Q407.95709890109885 135.37054945054948 407.95709890109885 140.05169230769232Q407.95709890109885 144.1927032967033 405.7965714285714 146.98338461538464Q403.6360439560439 149.77406593406596 399.6750769230769 151.2144175824176L391.5730989010989 153.735032967033Q385.6316483516483 155.53547252747254 383.6511648351648 158.5962197802198Q381.6706813186813 161.65696703296706 382.0307692307692 168.49863736263737L394.63384615384615 345.12175824175824Q394.993934065934 351.6033406593407 397.0644395604395 354.21397802197805Q399.13494505494504 356.8246153846154 403.99613186813184 358.445010989011L411.9180659340659 360.7855824175824Q415.8790329670329 362.04589010989014 417.8595164835165 364.7465494505495Q419.84 367.4472087912088 419.84 371.4081758241758Q419.84 375.9092747252747 416.59920879120875 378.970021978022Q413.35841758241753 382.03076923076924 406.6967912087912 382.03076923076924H312.8938901098901Q306.0522197802198 382.03076923076924 302.90145054945054 379.2400879120879Q299.7506813186813 376.4494065934066 299.7506813186813 371.9483076923077Q299.7506813186813 367.98734065934065 301.55112087912084 365.1966593406594Q303.35156043956044 362.40597802197806 308.21274725274725 360.7855824175824L316.3147252747253 358.445010989011Q322.0761318681319 356.4645274725275 324.14663736263736 353.67384615384617Q326.21714285714285 350.88316483516485 325.8570549450549 345.12175824175824L311.63358241758243 161.11683516483518L331.61846153846153 159.49643956043957L257.0802637362637 356.64457142857145Q252.93925274725274 367.6272527472528 248.61819780219778 370.778021978022Q244.29714285714283 373.9287912087912 238.35569230769232 373.9287912087912Q234.03463736263734 373.9287912087912 230.43375824175823 372.8485274725275Q226.8328791208791 371.76826373626375 223.77213186813185 367.89731868131867Q220.7113846153846 364.02637362637364 217.29054945054946 355.5643076923077L141.312 165.6179340659341L160.39665934065934 160.75674725274726L145.63305494505494 339.1803076923077Q145.09292307692306 347.2822857142857 149.23393406593405 351.6033406593407Q153.37494505494504 355.9243956043956 160.21661538461538 359.16518681318684L167.23832967032968 362.04589010989014Q170.11903296703298 363.48624175824176 171.73942857142856 365.7367912087912Q173.35982417582417 367.98734065934065 173.35982417582417 371.4081758241758Q173.35982417582417 376.26936263736263 170.20905494505496 379.15006593406594Q167.05828571428572 382.03076923076924 160.39665934065934 382.03076923076924H105.12316483516483Q98.46153846153845 382.03076923076924 95.31076923076922 379.2400879120879Q92.16 376.4494065934066 92.16 371.9483076923077Q92.16 367.26716483516486 94.68061538461538 364.83657142857146Q97.20123076923076 362.40597802197806 101.34224175824176 360.4254945054945L106.9236043956044 358.26496703296704Q112.86505494505494 355.9243956043956 116.73599999999999 351.51331868131865Q120.60694505494504 347.10224175824175 121.32712087912088 339.0002637362637L135.01046153846153 174.44008791208793Q135.73063736263737 164.7177142857143 133.5701098901099 160.12659340659343Q131.4095824175824 155.53547252747254 125.46813186813186 153.735032967033L117.5461978021978 151.2144175824176Q113.22514285714286 149.77406593406596 111.06461538461538 147.07340659340662Q108.9040879120879 144.37274725274727 108.9040879120879 140.23173626373628Q108.9040879120879 129.9692307692308 122.0472967032967 129.9692307692308H182.54206593406593Q191.90435164835162 129.9692307692308 197.57573626373625 133.84017582417584Q203.24712087912087 137.7111208791209 207.74821978021976 149.41397802197804Z" fill="#3D2B1F"/>
  <rect x="238.0" y="379.5" 
        width="36" height="5" rx="2.5" fill="#2C6E63"/>
  <circle cx="256" cy="408.0" r="8" fill="#C77B3F"/>
</svg>