<svg xmlns="http://www.w3.org/2000/svg" viewBox="0 0 192 192">
  <rect width="192" height="192" rx="36" fill="#FAF6EE"/>
  <path d="M102.32967032967034 118.618021978022 91.94901098901099 120.98109890109892 120.39032967032968 46.37538461538463Q122.41582417582417 40.97406593406595 125.07428571428571 38.94857142857144Q127.73274725274726 36.923076923076934 132.4589010989011 36.923076923076934H161.069010989011Q164.19164835164835 36.923076923076934 165.71076923076924 38.189010989011Q167.2298901098901 39.45494505494507 167.2298901098901 41.64923076923078Q167.2298901098901 43.590329670329695 166.21714285714285 44.89846153846156Q165.20439560439561 46.20659340659343 163.3476923076923 46.88175824175826L159.5498901098901 48.063296703296714Q156.76483516483518 48.90725274725277 155.83648351648353 50.34197802197804Q154.90813186813187 51.77670329670332 155.07692307692307 54.983736263736276L160.98461538461538 137.7758241758242Q161.1534065934066 140.81406593406595 162.12395604395604 142.0378021978022Q163.09450549450548 143.26153846153846 165.3731868131868 144.02109890109892L169.0865934065934 145.11824175824177Q170.9432967032967 145.709010989011 171.87164835164836 146.97494505494507Q172.8 148.24087912087913 172.8 150.09758241758243Q172.8 152.20747252747253 171.28087912087912 153.6421978021978Q169.76175824175823 155.0769230769231 166.63912087912087 155.0769230769231H122.66901098901099Q119.46197802197803 155.0769230769231 117.98505494505494 153.76879120879124Q116.50813186813187 152.46065934065936 116.50813186813187 150.35076923076926Q116.50813186813187 148.49406593406596 117.35208791208791 147.18593406593408Q118.19604395604395 145.87780219780223 120.47472527472527 145.11824175824177L124.27252747252747 144.02109890109892Q126.97318681318681 143.09274725274727 127.94373626373627 141.7846153846154Q128.9142857142857 140.47648351648354 128.74549450549452 137.7758241758242L122.07824175824176 51.5235164835165L131.44615384615386 50.76395604395606L96.50637362637363 143.17714285714288Q94.56527472527472 148.32527472527474 92.53978021978023 149.80219780219784Q90.51428571428572 151.2791208791209 87.72923076923077 151.2791208791209Q85.70373626373626 151.2791208791209 84.01582417582418 150.77274725274728Q82.32791208791208 150.26637362637365 80.89318681318682 148.45186813186814Q79.45846153846155 146.63736263736266 77.85494505494506 142.67076923076925L42.24 53.633406593406605L51.18593406593406 51.3547252747253L44.26549450549451 134.99076923076925Q44.012307692307694 138.78857142857146 45.9534065934066 140.81406593406595Q47.894505494505495 142.83956043956044 51.10153846153846 144.35868131868133L54.392967032967036 145.709010989011Q55.74329670329671 146.38417582417583 56.502857142857145 147.43912087912088Q57.262417582417584 148.49406593406596 57.262417582417584 150.09758241758243Q57.262417582417584 152.37626373626375 55.785494505494505 153.72659340659342Q54.308571428571426 155.0769230769231 51.18593406593406 155.0769230769231H25.276483516483516Q22.153846153846157 155.0769230769231 20.67692307692308 153.76879120879124Q19.200000000000003 152.46065934065936 19.200000000000003 150.35076923076926Q19.200000000000003 148.15648351648355 20.381538461538465 147.0171428571429Q21.563076923076927 145.87780219780223 23.504175824175825 144.94945054945057L26.120439560439564 143.9367032967033Q28.90549450549451 142.83956043956044 30.720000000000002 140.77186813186813Q32.534505494505495 138.70417582417585 32.87208791208791 134.90637362637364L39.28615384615385 57.76879120879123Q39.62373626373627 53.211428571428584 38.610989010989016 51.05934065934068Q37.59824175824176 48.90725274725277 34.81318681318682 48.063296703296714L31.09978021978022 46.88175824175826Q29.074285714285715 46.20659340659343 28.06153846153846 44.94065934065936Q27.04879120879121 43.67472527472529 27.04879120879121 41.73362637362639Q27.04879120879121 36.923076923076934 33.20967032967033 36.923076923076934H61.566593406593405Q65.95516483516484 36.923076923076934 68.61362637362637 38.73758241758243Q71.27208791208791 40.55208791208793 73.38197802197803 46.03780219780222Z" fill="#3D2B1F"/>
  <rect x="89.5" y="154.1" width="13" height="2" rx="1" fill="#2C6E63"/>
  <circle cx="96.0" cy="165.1" r="3" fill="#C77B3F"/>
</svg>