<svg xmlns="http://www.w3.org/2000/svg" viewBox="0 0 369 72">
  <path d="M27.644897959183673 10.085714285714289V48.289795918367346Q27.644897959183673 50.14693877551021 28.042857142857144 50.94285714285714Q28.440816326530612 51.73877551020408 29.34285714285714 52.11020408163265L30.828571428571426 52.69387755102041Q32.5265306122449 53.542857142857144 32.5265306122449 55.18775510204082Q32.5265306122449 58.0 29.024489795918367 58.0H7.004081632653061Q5.253061224489795 58.0 4.430612244897959 57.28367346938775Q3.608163265306122 56.56734693877551 3.608163265306122 55.3469387755102Q3.608163265306122 54.44489795918367 4.112244897959183 53.755102040816325Q4.616326530612245 53.06530612244898 5.677551020408163 52.64081632653061L7.322448979591837 52.11020408163265Q8.224489795918368 51.79183673469388 8.59591836734694 50.96938775510205Q8.96734693877551 50.14693877551021 8.96734693877551 48.289795918367346V20.432653061224492Q8.96734693877551 18.946938775510205 8.542857142857143 18.283673469387757Q8.118367346938776 17.62040816326531 7.216326530612244 17.408163265306122L5.253061224489795 17.142857142857146Q4.191836734693878 16.824489795918367 3.740816326530612 16.26734693877551Q3.289795918367347 15.710204081632654 3.289795918367347 14.808163265306128Q3.289795918367347 13.746938775510209 3.8999999999999995 13.110204081632656Q4.5102040816326525 12.473469387755102 6.1020408163265305 11.836734693877553L17.085714285714285 7.751020408163271Q19.36734693877551 6.848979591836738 20.826530612244895 6.4510204081632665Q22.285714285714285 6.053061224489795 23.559183673469388 6.053061224489795Q25.57551020408163 6.053061224489795 26.610204081632652 7.19387755102041Q27.644897959183673 8.334693877551025 27.644897959183673 10.085714285714289ZM25.893877551020406 22.44897959183674 23.13469387755102 19.53061224489796 24.93877551020408 17.885714285714286Q32.04897959183673 11.253061224489798 37.195918367346934 8.600000000000001Q42.34285714285714 5.946938775510205 46.85306122448979 5.946938775510205Q53.80408163265306 5.946938775510205 57.942857142857136 10.457142857142859Q62.08163265306122 14.967346938775513 62.08163265306122 22.395918367346937V48.23673469387755Q62.08163265306122 50.14693877551021 62.47959183673469 50.94285714285714Q62.87755102040816 51.73877551020408 63.77959183673469 52.11020408163265L65.21224489795918 52.69387755102041Q66.91020408163266 53.542857142857144 66.91020408163266 55.18775510204082Q66.91020408163266 58.0 63.46122448979592 58.0H41.97142857142857Q38.522448979591836 58.0 38.522448979591836 55.18775510204082Q38.522448979591836 53.542857142857144 40.16734693877551 52.69387755102041L41.70612244897959 52.11020408163265Q42.66122448979592 51.73877551020408 43.032653061224494 50.916326530612245Q43.40408163265306 50.09387755102041 43.40408163265306 48.183673469387756V25.048979591836734Q43.40408163265306 21.069387755102042 41.599999999999994 19.0530612244898Q39.795918367346935 17.036734693877555 36.453061224489794 17.036734693877555Q34.43673469387755 17.036734693877555 32.23469387755102 17.938775510204085Q30.03265306122449 18.840816326530614 27.910204081632653 20.69795918367347ZM60.33061224489796 22.44897959183674 57.518367346938774 19.53061224489796 59.37551020408163 17.885714285714286Q66.2734693877551 11.465306122448979 71.20816326530613 8.706122448979592Q76.14285714285714 5.946938775510205 80.44081632653061 5.946938775510205Q87.12653061224489 5.946938775510205 90.89387755102041 10.483673469387757Q94.66122448979591 15.020408163265309 95.35102040816327 22.395918367346937L98.05714285714285 48.23673469387755Q98.26938775510203 50.14693877551021 98.5877551020408 50.96938775510205Q98.90612244897959 51.79183673469388 99.75510204081633 52.11020408163265L101.2938775510204 52.64081632653061Q102.40816326530611 53.118367346938776 102.88571428571427 53.78163265306122Q103.36326530612244 54.44489795918367 103.36326530612244 55.3469387755102Q103.36326530612244 56.56734693877551 102.5673469387755 57.28367346938775Q101.77142857142857 58.0 99.9673469387755 58.0H77.73469387755102Q74.23265306122448 58.0 74.23265306122448 55.18775510204082Q74.23265306122448 53.542857142857144 75.93061224489796 52.69387755102041L77.46938775510203 52.11020408163265Q78.37142857142857 51.73877551020408 78.87551020408162 50.916326530612245Q79.37959183673469 50.09387755102041 79.16734693877551 48.183673469387756L76.7795918367347 25.048979591836734Q76.35510204081632 21.069387755102042 74.78979591836733 19.0530612244898Q73.22448979591836 17.036734693877555 70.0408163265306 17.036734693877555Q68.23673469387755 17.036734693877555 66.2734693877551 17.99183673469388Q64.31020408163265 18.946938775510205 62.29387755102041 20.69795918367347ZM139.92244897959182 50.99591836734694V49.881632653061224L138.59591836734694 49.72244897959184V16.718367346938777Q138.59591836734694 13.8530612244898 137.11020408163265 12.208163265306126Q135.62448979591835 10.563265306122453 132.97142857142856 10.563265306122453Q130.68979591836734 10.563265306122453 129.33673469387753 11.571428571428573Q127.98367346938775 12.579591836734693 127.98367346938775 14.118367346938776V19.371428571428574Q127.98367346938775 23.19183673469388 125.38367346938776 25.26122448979592Q122.78367346938775 27.33061224489796 118.06122448979592 27.33061224489796Q114.02857142857142 27.33061224489796 111.98571428571428 25.553061224489795Q109.94285714285714 23.775510204081634 109.94285714285714 20.538775510204083Q109.94285714285714 17.142857142857146 112.91428571428571 13.8Q115.88571428571429 10.457142857142856 121.74897959183673 8.228571428571428Q127.61224489795919 6.0 136.3673469387755 6.0Q146.8204081632653 6.0 151.9408163265306 10.03265306122449Q157.0612244897959 14.06530612244898 157.0612244897959 21.016326530612247V47.49387755102041Q157.0612244897959 48.76734693877551 157.61836734693878 49.457142857142856Q158.17551020408163 50.14693877551021 159.23673469387754 50.14693877551021Q160.29795918367347 50.14693877551021 160.85510204081632 49.61632653061225Q161.41224489795917 49.08571428571429 161.88979591836733 48.55510204081632Q162.20816326530613 48.23673469387755 162.5530612244898 47.971428571428575Q162.89795918367346 47.70612244897959 163.37551020408162 47.70612244897959Q164.17142857142858 47.70612244897959 164.51632653061225 48.26326530612245Q164.86122448979592 48.820408163265306 164.86122448979592 49.72244897959184Q164.86122448979592 51.79183673469388 163.40204081632652 54.02040816326531Q161.94285714285712 56.248979591836736 159.02448979591836 57.81428571428572Q156.1061224489796 59.3795918367347 151.75510204081633 59.3795918367347Q146.44897959183675 59.3795918367347 143.18571428571428 57.07142857142857Q139.92244897959182 54.76326530612245 139.92244897959182 50.99591836734694ZM107.8734693877551 46.804081632653066Q107.8734693877551 39.85306122448979 114.10816326530612 35.714285714285715Q120.34285714285714 31.575510204081635 131.59183673469389 31.575510204081635Q134.88163265306122 31.575510204081635 137.42857142857142 32.07959183673469Q139.97551020408162 32.583673469387755 141.7265306122449 33.48571428571429L140.2408163265306 37.46530612244898Q138.80816326530612 36.72244897959184 137.37551020408165 36.351020408163265Q135.94285714285715 35.9795918367347 134.24489795918367 35.9795918367347Q130.74285714285713 35.9795918367347 128.75306122448978 37.96938775510205Q126.76326530612245 39.95918367346939 126.76326530612245 43.62040816326531Q126.76326530612245 47.33469387755102 128.5673469387755 49.27142857142857Q130.37142857142857 51.208163265306126 133.23673469387754 51.208163265306126Q135.41224489795917 51.208163265306126 137.42857142857142 50.2Q139.44489795918366 49.19183673469388 140.66530612244898 47.546938775510206L141.88571428571427 51.155102040816324Q139.1265306122449 55.08163265306123 134.27142857142857 57.23061224489796Q129.41632653061225 59.3795918367347 123.89795918367346 59.3795918367347Q116.73469387755102 59.3795918367347 112.30408163265307 55.851020408163265Q107.8734693877551 52.32244897959184 107.8734693877551 46.804081632653066ZM171.5469387755102 13.32244897959184 169.42448979591836 12.632653061224495Q168.20408163265304 12.155102040816331 167.6734693877551 11.518367346938778Q167.14285714285714 10.881632653061224 167.14285714285714 9.979591836734699Q167.14285714285714 8.706122448979592 167.99183673469386 8.016326530612247Q168.8408163265306 7.326530612244902 170.27346938775509 7.326530612244902H173.35102040816327Q174.46530612244896 7.326530612244902 175.34081632653061 6.848979591836738Q176.21632653061224 6.371428571428574 177.33061224489794 5.044897959183679L184.6530612244898 -3.391836734693875Q186.03265306122447 -4.930612244897958 187.27959183673465 -5.673469387755098Q188.52653061224487 -6.416326530612238 189.7469387755102 -6.416326530612238Q191.0204081632653 -6.416326530612238 191.76326530612243 -5.567346938775504Q192.50612244897957 -4.71836734693877 192.50612244897957 -3.126530612244892V40.80816326530612Q192.50612244897957 44.62857142857143 193.91224489795917 46.61836734693878Q195.31836734693877 48.608163265306125 197.86530612244897 48.608163265306125Q199.82857142857142 48.608163265306125 200.91632653061225 47.7326530612245Q202.00408163265305 46.85714285714286 202.6673469387755 45.71632653061225Q203.33061224489794 44.57551020408163 203.99387755102038 43.673469387755105Q204.65714285714284 42.77142857142857 205.77142857142854 42.71836734693878Q206.6734693877551 42.71836734693878 207.20408163265304 43.35510204081633Q207.734693877551 43.99183673469388 207.734693877551 45.477551020408164Q207.734693877551 49.244897959183675 205.47959183673467 52.375510204081635Q203.22448979591834 55.50612244897959 199.24489795918367 57.38979591836734Q195.26530612244898 59.2734693877551 190.17142857142855 59.2734693877551Q182.42448979591836 59.2734693877551 178.1530612244898 55.50612244897959Q173.88163265306122 51.73877551020408 173.88163265306122 44.04489795918367V16.612244897959187Q173.88163265306122 15.126530612244899 173.32448979591834 14.463265306122452Q172.7673469387755 13.800000000000004 171.5469387755102 13.32244897959184ZM185.7142857142857 13.640816326530611V7.326530612244902H204.1795918367347Q205.61224489795916 7.326530612244902 206.434693877551 7.936734693877554Q207.25714285714284 8.546938775510206 207.25714285714284 9.66122448979592Q207.25714285714284 11.359183673469389 205.61224489795916 12.5Q203.9673469387755 13.640816326530611 200.2 13.640816326530611ZM215.4816326530612 13.32244897959184 213.35918367346937 12.632653061224495Q212.13877551020406 12.155102040816331 211.6081632653061 11.518367346938778Q211.07755102040815 10.881632653061224 211.07755102040815 9.979591836734699Q211.07755102040815 8.706122448979592 211.92653061224487 8.016326530612247Q212.7755102040816 7.326530612244902 214.2081632653061 7.326530612244902H217.28571428571428Q218.39999999999998 7.326530612244902 219.27551020408163 6.848979591836738Q220.15102040816325 6.371428571428574 221.26530612244895 5.044897959183679L228.5877551020408 -3.391836734693875Q229.96734693877548 -4.930612244897958 231.21428571428567 -5.673469387755098Q232.46122448979588 -6.416326530612238 233.6816326530612 -6.416326530612238Q234.9551020408163 -6.416326530612238 235.69795918367345 -5.567346938775504Q236.44081632653058 -4.71836734693877 236.44081632653058 -3.126530612244892V40.80816326530612Q236.44081632653058 44.62857142857143 237.84693877551018 46.61836734693878Q239.25306122448978 48.608163265306125 241.79999999999998 48.608163265306125Q243.76326530612243 48.608163265306125 244.85102040816327 47.7326530612245Q245.93877551020407 46.85714285714286 246.6020408163265 45.71632653061225Q247.26530612244895 44.57551020408163 247.9285714285714 43.673469387755105Q248.59183673469386 42.77142857142857 249.70612244897956 42.71836734693878Q250.6081632653061 42.71836734693878 251.13877551020406 43.35510204081633Q251.669387755102 43.99183673469388 251.669387755102 45.477551020408164Q251.669387755102 49.244897959183675 249.41428571428568 52.375510204081635Q247.15918367346936 55.50612244897959 243.1795918367347 57.38979591836734Q239.2 59.2734693877551 234.10612244897956 59.2734693877551Q226.35918367346937 59.2734693877551 222.0877551020408 55.50612244897959Q217.81632653061223 51.73877551020408 217.81632653061223 44.04489795918367V16.612244897959187Q217.81632653061223 15.126530612244899 217.25918367346935 14.463265306122452Q216.7020408163265 13.800000000000004 215.4816326530612 13.32244897959184ZM229.6489795918367 13.640816326530611V7.326530612244902H248.1142857142857Q249.54693877551017 7.326530612244902 250.36938775510203 7.936734693877554Q251.19183673469385 8.546938775510206 251.19183673469385 9.66122448979592Q251.19183673469385 11.359183673469389 249.54693877551017 12.5Q247.90204081632652 13.640816326530611 244.134693877551 13.640816326530611ZM308.2857142857143 26.26938775510204Q308.2857142857143 29.506122448979593 306.4816326530612 31.25714285714286Q304.67755102040815 33.00816326530612 301.334693877551 33.00816326530612H269.0204081632653V28.28571428571429H286.9551020408163Q289.71428571428567 28.28571428571429 289.71428571428567 25.68571428571429Q289.71428571428567 18.78775510204082 287.6714285714285 15.52448979591837Q285.6285714285714 12.261224489795921 282.2326530612245 12.261224489795921Q279.63265306122446 12.261224489795921 277.6428571428571 13.95918367346939Q275.65306122448976 15.657142857142858 274.48571428571427 18.973469387755102Q273.31836734693877 22.289795918367346 273.31836734693877 27.118367346938776Q273.31836734693877 37.09387755102041 277.90816326530614 41.922448979591834Q282.49795918367346 46.751020408163264 290.2448979591836 46.751020408163264Q294.3836734693877 46.751020408163264 297.59387755102034 45.37142857142857Q300.80408163265304 43.99183673469388 303.138775510204 41.02040816326531Q304.3591836734694 39.85306122448979 305.0224489795918 39.42857142857143Q305.68571428571425 39.00408163265306 306.3224489795918 39.00408163265306Q307.2775510204081 39.00408163265306 307.70204081632653 39.90612244897959Q308.1265306122449 40.80816326530612 308.1265306122449 42.08163265306123Q308.0204081632653 46.69795918367347 304.9428571428571 50.65102040816326Q301.86530612244894 54.60408163265306 296.4795918367347 56.99183673469388Q291.0938775510204 59.3795918367347 284.0897959183673 59.3795918367347Q276.1836734693877 59.3795918367347 270.0020408163265 56.19591836734694Q263.82040816326526 53.012244897959185 260.23877551020405 47.30816326530612Q256.65714285714284 41.60408163265306 256.65714285714284 33.910204081632656Q256.65714285714284 25.579591836734693 260.0 19.291836734693877Q263.3428571428571 13.004081632653062 269.6306122448979 9.475510204081633Q275.91836734693874 5.946938775510205 284.72653061224486 5.946938775510205Q292.3673469387755 5.946938775510205 297.62040816326527 8.573469387755104Q302.87346938775505 11.200000000000003 305.57959183673466 15.763265306122452Q308.2857142857143 20.326530612244902 308.2857142857143 26.26938775510204ZM337.0979591836734 29.453061224489797Q337.0979591836734 21.546938775510206 339.24693877551016 16.32040816326531Q341.3959183673469 11.093877551020412 344.95102040816323 8.520408163265309Q348.50612244897957 5.946938775510205 352.59183673469386 5.946938775510205Q357.95102040816323 5.946938775510205 360.8163265306122 9.051020408163268Q363.6816326530612 12.155102040816331 363.6816326530612 18.25714285714286Q363.6816326530612 24.093877551020412 361.2938775510204 26.906122448979595Q358.90612244897954 29.718367346938777 355.138775510204 29.718367346938777Q351.3183673469387 29.718367346938777 349.3551020408163 27.702040816326534Q347.3918367346938 25.68571428571429 347.3918367346938 22.13061224489796V20.06122448979592Q347.338775510204 18.522448979591836 346.7020408163265 17.753061224489798Q346.06530612244893 16.98367346938776 344.63265306122446 16.98367346938776Q343.14693877551014 16.98367346938776 341.9 18.230612244897962Q340.65306122448976 19.477551020408164 339.8571428571428 22.077551020408166Q339.06122448979585 24.677551020408167 339.06122448979585 28.922448979591838ZM337.89387755102035 10.085714285714289 339.06122448979585 21.759183673469387V48.289795918367346Q339.06122448979585 49.93469387755102 339.6183673469387 50.67755102040816Q340.1755102040816 51.42040816326531 341.92653061224485 51.73877551020408L346.2244897959183 52.481632653061226Q347.6571428571428 52.7469387755102 348.32040816326526 53.410204081632656Q348.9836734693877 54.073469387755104 348.9836734693877 55.29387755102041Q348.9836734693877 56.56734693877551 348.0816326530612 57.28367346938775Q347.17959183673463 58.0 345.4816326530612 58.0H318.4204081632653Q316.669387755102 58.0 315.8469387755101 57.28367346938775Q315.0244897959183 56.56734693877551 315.0244897959183 55.3469387755102Q315.0244897959183 54.44489795918367 315.52857142857135 53.755102040816325Q316.03265306122444 53.06530612244898 317.14693877551014 52.64081632653061L318.73877551020405 52.11020408163265Q319.64081632653057 51.79183673469388 320.01224489795914 50.96938775510205Q320.3836734693877 50.14693877551021 320.3836734693877 48.289795918367346V20.591836734693878Q320.3836734693877 19.10612244897959 319.95918367346934 18.442857142857143Q319.534693877551 17.779591836734696 318.63265306122446 17.567346938775515L316.669387755102 17.30204081632653Q315.6081632653061 16.98367346938776 315.15714285714284 16.4265306122449Q314.70612244897956 15.86938775510204 314.70612244897956 14.967346938775513Q314.70612244897956 13.906122448979595 315.3163265306122 13.242857142857144Q315.92653061224485 12.579591836734693 317.5714285714285 11.995918367346938L328.1836734693877 8.016326530612247Q331.3673469387755 6.7959183673469425 332.7734693877551 6.4510204081632665Q334.17959183673463 6.1061224489795904 334.97551020408156 6.1061224489795904Q336.2489795918367 6.1061224489795904 336.93877551020404 7.008163265306123Q337.6285714285714 7.910204081632656 337.89387755102035 10.085714285714289Z" fill="#3D2B1F"/>
  <text x="1" y="70" 
    font-family="IBM Plex Mono, monospace" 
    font-size="7.5" 
    letter-spacing="0.12em" 
    fill="#C77B3F" 
    font-weight="400">LA SCIENZA DEL MESTIERE</text>
</svg>