<svg viewBox="0 0 340 210" xmlns="http://www.w3.org/2000/svg" font-family="system-ui,-apple-system,sans-serif">
<rect width="340" height="210" fill="#F7F5F0"/><line x1="0" y1="0" x2="0" y2="210" stroke="#E4E0D8" stroke-width="0.5"/><line x1="20" y1="0" x2="20" y2="210" stroke="#E4E0D8" stroke-width="0.5"/><line x1="40" y1="0" x2="40" y2="210" stroke="#E4E0D8" stroke-width="0.5"/><line x1="60" y1="0" x2="60" y2="210" stroke="#E4E0D8" stroke-width="0.5"/><line x1="80" y1="0" x2="80" y2="210" stroke="#E4E0D8" stroke-width="0.5"/><line x1="100" y1="0" x2="100" y2="210" stroke="#E4E0D8" stroke-width="0.5"/><line x1="120" y1="0" x2="120" y2="210" stroke="#E4E0D8" stroke-width="0.5"/><line x1="140" y1="0" x2="140" y2="210" stroke="#E4E0D8" stroke-width="0.5"/><line x1="160" y1="0" x2="160" y2="210" stroke="#E4E0D8" stroke-width="0.5"/><line x1="180" y1="0" x2="180" y2="210" stroke="#E4E0D8" stroke-width="0.5"/><line x1="200" y1="0" x2="200" y2="210" stroke="#E4E0D8" stroke-width="0.5"/><line x1="220" y1="0" x2="220" y2="210" stroke="#E4E0D8" stroke-width="0.5"/><line x1="240" y1="0" x2="240" y2="210" stroke="#E4E0D8" stroke-width="0.5"/><line x1="260" y1="0" x2="260" y2="210" stroke="#E4E0D8" stroke-width="0.5"/><line x1="280" y1="0" x2="280" y2="210" stroke="#E4E0D8" stroke-width="0.5"/><line x1="300" y1="0" x2="300" y2="210" stroke="#E4E0D8" stroke-width="0.5"/><line x1="320" y1="0" x2="320" y2="210" stroke="#E4E0D8" stroke-width="0.5"/><line x1="0" y1="0" x2="340" y2="0" stroke="#E4E0D8" stroke-width="0.5"/><line x1="0" y1="20" x2="340" y2="20" stroke="#E4E0D8" stroke-width="0.5"/><line x1="0" y1="40" x2="340" y2="40" stroke="#E4E0D8" stroke-width="0.5"/><line x1="0" y1="60" x2="340" y2="60" stroke="#E4E0D8" stroke-width="0.5"/><line x1="0" y1="80" x2="340" y2="80" stroke="#E4E0D8" stroke-width="0.5"/><line x1="0" y1="100" x2="340" y2="100" stroke="#E4E0D8" stroke-width="0.5"/><line x1="0" y1="120" x2="340" y2="120" stroke="#E4E0D8" stroke-width="0.5"/><line x1="0" y1="140" x2="340" y2="140" stroke="#E4E0D8" stroke-width="0.5"/><line x1="0" y1="160" x2="340" y2="160" stroke="#E4E0D8" stroke-width="0.5"/><line x1="0" y1="180" x2="340" y2="180" stroke="#E4E0D8" stroke-width="0.5"/><line x1="0" y1="200" x2="340" y2="200" stroke="#E4E0D8" stroke-width="0.5"/>
<text x="20" y="24" fill="#12545D" font-size="10" font-weight="600" letter-spacing="0.5">EMULSIONE · olio-in-acqua</text>
<rect x="26" y="32" width="170" height="166" rx="10" fill="#12545D" opacity="0.06" stroke="#12545D" stroke-width="1.2"/>
<text x="34" y="192" fill="#12545D" font-size="8" opacity="0.7">fase acquosa</text>
<circle cx="58" cy="60" r="14" fill="#C77B3F" opacity="0.30"/><circle cx="58" cy="60" r="14" fill="none" stroke="#245979" stroke-width="1" opacity="0.5"/><circle cx="54" cy="56" r="3.5" fill="#F7F5F0" opacity="0.5"/><circle cx="88" cy="90" r="14" fill="#C77B3F" opacity="0.30"/><circle cx="88" cy="90" r="14" fill="none" stroke="#245979" stroke-width="1" opacity="0.5"/><circle cx="84" cy="86" r="3.5" fill="#F7F5F0" opacity="0.5"/><circle cx="58" cy="120" r="14" fill="#C77B3F" opacity="0.30"/><circle cx="58" cy="120" r="14" fill="none" stroke="#245979" stroke-width="1" opacity="0.5"/><circle cx="54" cy="116" r="3.5" fill="#F7F5F0" opacity="0.5"/><circle cx="88" cy="150" r="14" fill="#C77B3F" opacity="0.30"/><circle cx="88" cy="150" r="14" fill="none" stroke="#245979" stroke-width="1" opacity="0.5"/><circle cx="84" cy="146" r="3.5" fill="#F7F5F0" opacity="0.5"/><circle cx="118" cy="68" r="14" fill="#C77B3F" opacity="0.30"/><circle cx="118" cy="68" r="14" fill="none" stroke="#245979" stroke-width="1" opacity="0.5"/><circle cx="114" cy="64" r="3.5" fill="#F7F5F0" opacity="0.5"/><circle cx="148" cy="98" r="14" fill="#C77B3F" opacity="0.30"/><circle cx="148" cy="98" r="14" fill="none" stroke="#245979" stroke-width="1" opacity="0.5"/><circle cx="144" cy="94" r="3.5" fill="#F7F5F0" opacity="0.5"/><circle cx="118" cy="128" r="14" fill="#C77B3F" opacity="0.30"/><circle cx="118" cy="128" r="14" fill="none" stroke="#245979" stroke-width="1" opacity="0.5"/><circle cx="114" cy="124" r="3.5" fill="#F7F5F0" opacity="0.5"/><circle cx="148" cy="158" r="14" fill="#C77B3F" opacity="0.30"/><circle cx="148" cy="158" r="14" fill="none" stroke="#245979" stroke-width="1" opacity="0.5"/><circle cx="144" cy="154" r="3.5" fill="#F7F5F0" opacity="0.5"/><circle cx="178" cy="80" r="14" fill="#C77B3F" opacity="0.30"/><circle cx="178" cy="80" r="14" fill="none" stroke="#245979" stroke-width="1" opacity="0.5"/><circle cx="174" cy="76" r="3.5" fill="#F7F5F0" opacity="0.5"/><circle cx="178" cy="140" r="14" fill="#C77B3F" opacity="0.30"/><circle cx="178" cy="140" r="14" fill="none" stroke="#245979" stroke-width="1" opacity="0.5"/><circle cx="174" cy="136" r="3.5" fill="#F7F5F0" opacity="0.5"/>
<line x1="150" y1="120" x2="238" y2="108" stroke="#9AA8AC" stroke-width="1" stroke-dasharray="2 2"/>
<circle cx="278" cy="108" r="40" fill="#C77B3F" opacity="0.28"/><circle cx="278" cy="108" r="40" fill="none" stroke="#C77B3F" stroke-width="1.5"/>
<line x1="318.0" y1="108.0" x2="306.0" y2="108.0" stroke="#245979" stroke-width="1.5"/><circle cx="318.0" cy="108.0" r="3" fill="#245979"/><line x1="315.6" y1="121.7" x2="304.3" y2="117.6" stroke="#245979" stroke-width="1.5"/><circle cx="315.6" cy="121.7" r="3" fill="#245979"/><line x1="308.6" y1="133.7" x2="299.4" y2="126.0" stroke="#245979" stroke-width="1.5"/><circle cx="308.6" cy="133.7" r="3" fill="#245979"/><line x1="298.0" y1="142.6" x2="292.0" y2="132.2" stroke="#245979" stroke-width="1.5"/><circle cx="298.0" cy="142.6" r="3" fill="#245979"/><line x1="284.9" y1="147.4" x2="282.9" y2="135.6" stroke="#245979" stroke-width="1.5"/><circle cx="284.9" cy="147.4" r="3" fill="#245979"/><line x1="271.1" y1="147.4" x2="273.1" y2="135.6" stroke="#245979" stroke-width="1.5"/><circle cx="271.1" cy="147.4" r="3" fill="#245979"/><line x1="258.0" y1="142.6" x2="264.0" y2="132.2" stroke="#245979" stroke-width="1.5"/><circle cx="258.0" cy="142.6" r="3" fill="#245979"/><line x1="247.4" y1="133.7" x2="256.6" y2="126.0" stroke="#245979" stroke-width="1.5"/><circle cx="247.4" cy="133.7" r="3" fill="#245979"/><line x1="240.4" y1="121.7" x2="251.7" y2="117.6" stroke="#245979" stroke-width="1.5"/><circle cx="240.4" cy="121.7" r="3" fill="#245979"/><line x1="238.0" y1="108.0" x2="250.0" y2="108.0" stroke="#245979" stroke-width="1.5"/><circle cx="238.0" cy="108.0" r="3" fill="#245979"/><line x1="240.4" y1="94.3" x2="251.7" y2="98.4" stroke="#245979" stroke-width="1.5"/><circle cx="240.4" cy="94.3" r="3" fill="#245979"/><line x1="247.4" y1="82.3" x2="256.6" y2="90.0" stroke="#245979" stroke-width="1.5"/><circle cx="247.4" cy="82.3" r="3" fill="#245979"/><line x1="258.0" y1="73.4" x2="264.0" y2="83.8" stroke="#245979" stroke-width="1.5"/><circle cx="258.0" cy="73.4" r="3" fill="#245979"/><line x1="271.1" y1="68.6" x2="273.1" y2="80.4" stroke="#245979" stroke-width="1.5"/><circle cx="271.1" cy="68.6" r="3" fill="#245979"/><line x1="284.9" y1="68.6" x2="282.9" y2="80.4" stroke="#245979" stroke-width="1.5"/><circle cx="284.9" cy="68.6" r="3" fill="#245979"/><line x1="298.0" y1="73.4" x2="292.0" y2="83.8" stroke="#245979" stroke-width="1.5"/><circle cx="298.0" cy="73.4" r="3" fill="#245979"/><line x1="308.6" y1="82.3" x2="299.4" y2="90.0" stroke="#245979" stroke-width="1.5"/><circle cx="308.6" cy="82.3" r="3" fill="#245979"/><line x1="315.6" y1="94.3" x2="304.3" y2="98.4" stroke="#245979" stroke-width="1.5"/><circle cx="315.6" cy="94.3" r="3" fill="#245979"/>
<text x="278" y="112" fill="#1A2529" font-size="11" text-anchor="middle" font-weight="700">olio</text>
<text x="278" y="62" fill="#245979" font-size="8.5" text-anchor="middle" font-weight="600">lecitina</text>
<text x="278" y="170" fill="#9AA8AC" font-size="8" text-anchor="middle">testa + coda</text>
</svg>